<svg xmlns="http://www.w3.org/2000/svg" viewBox="0 0 32 32" width="32" height="32">
  <circle cx="16" cy="16" r="15" fill="#4CAF50"/>
  <!-- Staff lines (left side) -->
  <g stroke="#fff" stroke-width="0.8" opacity="0.9">
    <line x1="4" y1="11" x2="19" y2="11"/>
    <line x1="4" y1="14" x2="19" y2="14"/>
    <line x1="4" y1="17" x2="19" y2="17"/>
    <line x1="4" y1="20" x2="19" y2="20"/>
    <line x1="4" y1="23" x2="19" y2="23"/>
  </g>
  <!-- Musical emoji -->
  <text x="8" y="20" font-size="8" text-anchor="middle">🎼</text>
  <!-- Music notes -->
  <g fill="#fff">
    <ellipse cx="13" cy="19" rx="1.2" ry="0.9" transform="rotate(-20 13 19)"/>
    <rect x="13.8" y="14" width="0.6" height="5"/>
    <ellipse cx="16" cy="17" rx="1.2" ry="0.9" transform="rotate(-20 16 17)"/>
    <rect x="16.8" y="12" width="0.6" height="5"/>
    <polygon points="14.4,14 17.4,12 17.4,12.8 14.4,14.8"/>
  </g>
  <!-- PDF icon (right side) - larger -->
  <g transform="translate(19, 9)">
    <rect x="2" y="1.5" width="9" height="11.5" fill="#fff" opacity="0.5" rx="0.6"/>
    <rect x="1" y="0.8" width="9" height="11.5" fill="#fff" opacity="0.7" rx="0.6"/>
    <rect x="0" y="0" width="9" height="11.5" fill="#fff" rx="0.6"/>
    <line x1="1.5" y1="2.5" x2="7.5" y2="2.5" stroke="#4CAF50" stroke-width="0.5"/>
    <line x1="1.5" y1="4.5" x2="7.5" y2="4.5" stroke="#4CAF50" stroke-width="0.5"/>
    <line x1="1.5" y1="6.5" x2="7.5" y2="6.5" stroke="#4CAF50" stroke-width="0.5"/>
    <line x1="1.5" y1="8.5" x2="6.5" y2="8.5" stroke="#4CAF50" stroke-width="0.5"/>
    <path d="M 9 0 L 9 2.5 L 6.5 2.5 Z" fill="#e8e8e8"/>
  </g>
</svg>
